<svg xmlns="http://www.w3.org/2000/svg" viewBox="76.60499633789061 176.19100695800782 421.7900085449219 223.32799977111816"><rect height="100%" width="100%" x="76.60499633789061" y="176.19100695800782" fill="#ffffff"/> <svg xmlns="http://www.w3.org/2000/svg" xmlns:xlink="http://www.w3.org/1999/xlink" version="1.1" id="dddd_1" x="256.992" y="246.19100695800782" viewBox="1618.27001953125 741.7200317382812 1763.480224609375 1516.571044921875" xml:space="preserve" height="52.459254019401804" width="61" preserveAspectRatio="xMinYMin" enable-background="new 0 0 5000 3000" style="overflow: visible;"><path d="M3028.43,1037.76c-152.3,70.74-294.84,127.15-391.6,277.16c-72.92,111.74-110.01,243.5-118.26,375.78   c-2.59,175.65,8.05,350.86,19.57,526.3c-6.2-0.05-12.39-0.1-18.59-0.14c-19.24,0.1-38.47,0.26-57.7,0.48   c11.53-175.55,22.18-350.87,19.59-526.63c-8.24-132.28-45.34-264.04-118.26-375.78c-96.79-150.04-239.2-206.36-391.6-277.16   c-139.76-67.79-266.04-165.79-353.31-296.04c7.96,18.09,17.06,35.78,27.16,52.93c17.09,27.83,36.2,54.4,56.9,79.72   c4.08,379.53,214.43,719.68,599.77,808.77c42.81,9.49,86.33,16.28,129.92,17.38c0.75,7.61,1.44,15.23,2.01,22.85   c6.97,164.49,10.55,329.42,22.64,494.02c-174.88,2.05-349.3,9.73-523.13,34.85v4.16c72.87,0.66,220.16,1.34,293,1.38   c269.26,0.94,610.88,0.6,879-1.38c0,0,0-4.16,0-4.17c-186.78-26.84-374.23-33.7-562.19-35.2c12.08-164.49,15.66-329.3,22.62-493.67   c0.59-7.78,1.28-15.55,2.06-23.33c175.16-5.86,347.2-80.81,475.71-199.47c171.07-159.58,251.33-396.74,254-626.28   c20.68-25.3,39.77-51.85,56.84-79.64c10.11-17.15,19.2-34.84,27.17-52.93C3294.46,871.98,3168.2,969.95,3028.43,1037.76z    M1950.59,1078.12c137.41,74.16,279.01,133.1,363.98,268.95c33.08,50.54,58.61,105.5,77.63,162.77   c-127.66-37.18-243.73-112.16-327.73-215.02c-55.79-68.5-96.17-145-130.93-226.31C1939.21,1071.75,1944.87,1075,1950.59,1078.12z    M2271.61,1650.65c-346.87-132.28-507.86-421.96-566.38-772.68c61.03,73.72,136.2,136.17,218.36,184.75   c8.49,53.03,24.73,105.06,47.53,154.51c74.12,164.62,241.65,292.75,423.77,300.88c18.5,57.81,30.46,117.87,36.69,178.15   C2376.69,1686.06,2323.64,1670.14,2271.61,1650.65z M2685.43,1347.06c85.22-136.08,226.34-194.62,363.97-268.95   c5.72-3.12,11.39-6.37,17.05-9.62c-34.76,81.31-75.14,157.8-130.93,226.31c-84,102.86-200.07,177.85-327.73,215.02   C2626.82,1452.56,2652.35,1397.61,2685.43,1347.06z M3066.96,1415.81c-126.29,148.36-307.76,243.9-498.5,280.11   c6.24-60.17,18.19-120.11,36.65-177.81c182.11-8.12,349.66-136.27,423.77-300.88c22.8-49.45,39.03-101.48,47.53-154.51   c82.03-48.5,157.11-110.84,218.1-184.42C3260.53,1072.74,3196.86,1265.63,3066.96,1415.81z" style="fill: #bd9762; fill-opacity: 1;"></path><ellipse transform="matrix(0.9239 -0.3827 0.3827 0.9239 -216.3686 1037.5985)" cx="2500" cy="1062.68" rx="100.84" ry="100.84" style="fill: #bd9762; fill-opacity: 1;"></ellipse><polygon points="2733.37,2002.21 2711.68,2014.07 2733.37,2025.93 2745.23,2047.62 2757.09,2025.93 2778.78,2014.07    2757.09,2002.21 2745.23,1980.52  " style="fill: #bd9762; fill-opacity: 1;"></polygon><polygon points="3043.74,1740.27 3028.75,1767.67 3001.35,1782.65 3028.75,1797.64 3043.74,1825.03 3058.72,1797.64    3086.12,1782.65 3058.72,1767.67  " style="fill: #bd9762; fill-opacity: 1;"></polygon><polygon points="3235.9,1448.82 3225.12,1468.54 3205.4,1479.32 3225.12,1490.11 3235.9,1509.83 3246.69,1490.11 3266.41,1479.32    3246.69,1468.54  " style="fill: #bd9762; fill-opacity: 1;"></polygon><polygon points="2266.63,2025.93 2288.32,2014.07 2266.63,2002.21 2254.77,1980.52 2242.91,2002.21 2221.22,2014.07    2242.91,2025.93 2254.77,2047.62  " style="fill: #bd9762; fill-opacity: 1;"></polygon><polygon points="1956.26,1825.03 1971.25,1797.64 1998.65,1782.65 1971.25,1767.67 1956.26,1740.27 1941.28,1767.67    1913.88,1782.65 1941.28,1797.64  " style="fill: #bd9762; fill-opacity: 1;"></polygon><polygon points="1764.1,1448.82 1753.31,1468.54 1733.59,1479.32 1753.31,1490.11 1764.1,1509.83 1774.88,1490.11 1794.6,1479.32    1774.88,1468.54  " style="fill: #bd9762; fill-opacity: 1;"></polygon></svg> <svg xmlns="http://www.w3.org/2000/svg" y="306.0290069580078" viewBox="1.090000033378601 5.579999923706055 281.7900085449219 23.489999771118164" x="146.6049963378906" height="23.489999771118164" width="281.7900085449219" style="overflow: visible;"><g fill="#130980" fill-opacity="1" style=""><path d="M4.88 7.29Q3.43 7.29 2.48 7.85Q1.52 8.41 1.09 9.27L1.09 9.27L1.55 5.97L17.19 5.97L17.66 9.27Q17.23 8.41 16.27 7.85Q15.31 7.29 13.86 7.29L13.86 7.29L10.56 7.29L10.56 25.61Q10.56 26.93 10.89 27.62Q11.22 28.31 11.62 28.54Q12.01 28.78 12.01 28.68L12.01 28.68L6.77 28.68Q6.77 28.78 7.16 28.54Q7.56 28.31 7.87 27.64Q8.18 26.96 8.18 25.61L8.18 25.61L8.18 7.29L4.88 7.29ZM37.42 28.68Q37.42 28.78 37.82 28.53Q38.21 28.28 38.54 27.60Q38.87 26.93 38.87 25.61L38.87 25.61L38.87 18.12L26.47 18.12L26.47 25.61Q26.47 26.93 26.80 27.60Q27.13 28.28 27.52 28.51Q27.92 28.74 27.92 28.68L27.92 28.68L22.67 28.68Q22.67 28.78 23.07 28.53Q23.46 28.28 23.78 27.60Q24.09 26.93 24.09 25.61L24.09 25.61L24.09 9.04Q24.09 7.72 23.78 7.05Q23.46 6.37 23.07 6.14Q22.67 5.91 22.67 5.97L22.67 5.97L27.92 5.97Q27.92 5.91 27.52 6.14Q27.13 6.37 26.80 7.05Q26.47 7.72 26.47 9.04L26.47 9.04L26.47 16.66L38.87 16.66L38.87 9.04Q38.87 7.72 38.54 7.05Q38.21 6.37 37.82 6.14Q37.42 5.91 37.42 5.97L37.42 5.97L42.67 5.97Q42.67 5.87 42.27 6.12Q41.88 6.37 41.56 7.05Q41.25 7.72 41.25 9.04L41.25 9.04L41.25 25.61Q41.25 26.93 41.58 27.60Q41.91 28.28 42.31 28.51Q42.70 28.74 42.70 28.68L42.70 28.68L37.42 28.68ZM61.84 28.68L49.40 28.68Q49.40 28.78 49.80 28.53Q50.19 28.28 50.51 27.54Q50.82 26.80 50.82 25.38L50.82 25.38L50.82 9.17Q50.82 7.82 50.51 7.11Q50.19 6.40 49.80 6.14Q49.40 5.87 49.40 5.97L49.40 5.97L61.35 5.97L61.35 9.27Q60.75 7.29 57.78 7.29L57.78 7.29L53.20 7.29L53.20 16.66L58.87 16.66Q59.53 16.66 59.99 16.45Q60.46 16.24 60.69 16.00Q60.92 15.77 60.95 15.71L60.95 15.71L60.95 18.91Q60.92 18.84 60.69 18.61Q60.46 18.38 60.01 18.18Q59.56 17.98 58.91 17.98L58.91 17.98L53.20 17.98L53.20 27.36L58.34 27.36Q59.83 27.36 60.90 26.75Q61.97 26.14 62.44 25.18L62.44 25.18L61.84 28.68ZM85.21 17.26Q86.72 17.26 87.85 16.55Q88.97 15.84 89.55 14.70Q90.12 13.56 90.12 12.31L90.12 12.31Q90.12 11.02 89.58 9.88Q89.03 8.74 87.91 8.02Q86.79 7.29 85.17 7.29L85.17 7.29L82.37 7.29L82.37 25.64Q82.37 26.96 82.70 27.64Q83.03 28.31 83.42 28.53Q83.82 28.74 83.82 28.68L83.82 28.68L78.57 28.68Q78.57 28.74 78.97 28.51Q79.36 28.28 79.68 27.62Q79.99 26.96 79.99 25.64L79.99 25.64L79.99 9.14Q79.99 7.79 79.68 7.08Q79.36 6.37 78.97 6.12Q78.57 5.87 78.57 5.97L78.57 5.97L85.11 5.97Q87.68 5.97 89.35 6.81Q91.01 7.66 91.76 8.99Q92.50 10.33 92.50 11.91L92.50 11.91Q92.50 13.23 91.87 14.50Q91.25 15.77 90.07 16.71Q88.90 17.66 87.35 18.02L87.35 18.02L86.82 18.12L92.63 25.51Q93.79 26.80 94.55 27.49Q95.30 28.18 95.65 28.41Q96.00 28.64 96.06 28.68L96.06 28.68L92.20 28.68L83.23 17.26L85.21 17.26ZM99.73 17.59Q99.73 14.09 101.23 11.35Q102.73 8.61 105.45 7.09Q108.17 5.58 111.74 5.58L111.74 5.58Q114.71 5.58 117.30 6.88Q119.89 8.18 121.46 10.79Q123.02 13.40 123.02 17.06L123.02 17.06Q123.02 20.56 121.52 23.30Q120.02 26.04 117.30 27.55Q114.58 29.07 111.01 29.07L111.01 29.07Q108.04 29.07 105.45 27.77Q102.86 26.47 101.29 23.86Q99.73 21.25 99.73 17.59L99.73 17.59ZM120.38 17.56Q120.38 14.55 119.15 12.13Q117.91 9.70 115.75 8.33Q113.59 6.96 110.88 6.96L110.88 6.96Q108.41 6.96 106.47 8.22Q104.54 9.47 103.46 11.76Q102.37 14.06 102.37 17.09L102.37 17.09Q102.37 20.10 103.60 22.52Q104.84 24.95 107.00 26.32Q109.16 27.69 111.87 27.69L111.87 27.69Q114.35 27.69 116.28 26.43Q118.21 25.18 119.30 22.89Q120.38 20.59 120.38 17.56L120.38 17.56ZM140.09 29.04Q136.95 29.04 134.28 27.72Q131.60 26.40 129.99 23.76Q128.37 21.12 128.37 17.32L128.37 17.32Q128.37 13.96 129.90 11.29Q131.44 8.61 134.23 7.09Q137.02 5.58 140.65 5.58L140.65 5.58Q142.96 5.58 144.82 6.10Q146.69 6.63 147.77 7.26L147.77 7.26L147.77 10.92Q146.75 9.14 144.72 8.05Q142.69 6.96 140.58 6.96L140.58 6.96Q137.64 6.96 135.48 8.20Q133.32 9.44 132.17 11.71Q131.01 13.99 131.01 17.06L131.01 17.06Q131.01 20.39 132.35 22.77Q133.68 25.15 135.89 26.33Q138.11 27.52 140.71 27.52L140.71 27.52Q141.90 27.52 143.17 27.24Q144.44 26.96 145.53 26.43L145.53 26.43L145.53 20.99Q145.53 19.96 145.20 19.39Q144.87 18.81 144.47 18.56Q144.08 18.31 144.08 18.38L144.08 18.38L149.36 18.38Q149.36 18.31 148.96 18.51Q148.57 18.71 148.24 19.26Q147.91 19.80 147.91 20.79L147.91 20.79L147.91 26.80Q146.16 27.88 144.13 28.46Q142.10 29.04 140.09 29.04L140.09 29.04ZM173.12 9.04L173.12 20.79Q173.12 23.40 172.13 25.26Q171.14 27.13 169.34 28.10Q167.54 29.07 165.17 29.07L165.17 29.07Q161.24 29.07 159.09 26.89Q156.95 24.72 156.95 20.86L156.95 20.86L156.95 9.04Q156.95 7.72 156.63 7.05Q156.32 6.37 155.94 6.14Q155.56 5.91 155.56 5.97L155.56 5.97L160.71 5.97Q160.71 5.91 160.33 6.14Q159.95 6.37 159.64 7.03Q159.32 7.69 159.32 8.94L159.32 8.94L159.32 20.86Q159.32 24.06 160.86 25.81Q162.39 27.55 165.36 27.55L165.36 27.55Q168.10 27.55 169.69 25.89Q171.27 24.22 171.27 20.95L171.27 20.95L171.27 9.04Q171.27 7.72 170.94 7.05Q170.61 6.37 170.21 6.14Q169.82 5.91 169.82 5.97L169.82 5.97L174.57 5.97Q174.57 5.91 174.17 6.14Q173.78 6.37 173.45 7.05Q173.12 7.72 173.12 9.04L173.12 9.04ZM193.12 28.68L180.68 28.68Q180.68 28.78 181.07 28.53Q181.47 28.28 181.78 27.54Q182.09 26.80 182.09 25.38L182.09 25.38L182.09 9.17Q182.09 7.82 181.78 7.11Q181.47 6.40 181.07 6.14Q180.68 5.87 180.68 5.97L180.68 5.97L192.62 5.97L192.62 9.27Q192.03 7.29 189.06 7.29L189.06 7.29L184.47 7.29L184.47 16.66L190.15 16.66Q190.81 16.66 191.27 16.45Q191.73 16.24 191.96 16.00Q192.19 15.77 192.23 15.71L192.23 15.71L192.23 18.91Q192.19 18.84 191.96 18.61Q191.73 18.38 191.28 18.18Q190.84 17.98 190.18 17.98L190.18 17.98L184.47 17.98L184.47 27.36L189.62 27.36Q191.10 27.36 192.18 26.75Q193.25 26.14 193.71 25.18L193.71 25.18L193.12 28.68ZM224.63 26.83Q221.53 28.68 216.35 28.68L216.35 28.68L209.85 28.68Q209.85 28.78 210.24 28.50Q210.64 28.21 210.95 27.46Q211.27 26.70 211.27 25.24L211.27 25.24L211.27 9.01Q211.27 7.72 210.95 7.05Q210.64 6.37 210.24 6.14Q209.85 5.91 209.85 5.97L209.85 5.97L216.32 5.97Q221.36 5.97 224.30 7.62L224.30 7.62Q226.91 9.07 228.33 11.55Q229.75 14.02 229.75 17.13L229.75 17.13Q229.75 20.49 228.41 22.95Q227.07 25.41 224.63 26.83L224.63 26.83ZM223.34 9.11Q221.89 8.15 220.24 7.72Q218.59 7.29 216.32 7.29L216.32 7.29L213.64 7.29L213.64 27.36L216.32 27.36Q219.02 27.36 220.75 26.89Q222.49 26.43 223.74 25.48L223.74 25.48Q225.36 24.22 226.23 22.19Q227.11 20.16 227.11 17.46L227.11 17.46Q227.11 14.59 226.10 12.42Q225.09 10.26 223.34 9.11L223.34 9.11ZM235.36 17.59Q235.36 14.09 236.86 11.35Q238.36 8.61 241.08 7.09Q243.80 5.58 247.37 5.58L247.37 5.58Q250.34 5.58 252.93 6.88Q255.52 8.18 257.09 10.79Q258.65 13.40 258.65 17.06L258.65 17.06Q258.65 20.56 257.15 23.30Q255.65 26.04 252.93 27.55Q250.21 29.07 246.64 29.07L246.64 29.07Q243.67 29.07 241.08 27.77Q238.49 26.47 236.92 23.86Q235.36 21.25 235.36 17.59L235.36 17.59ZM256.01 17.56Q256.01 14.55 254.78 12.13Q253.54 9.70 251.38 8.33Q249.22 6.96 246.51 6.96L246.51 6.96Q244.04 6.96 242.10 8.22Q240.17 9.47 239.09 11.76Q238.00 14.06 238.00 17.09L238.00 17.09Q238.00 20.10 239.23 22.52Q240.47 24.95 242.63 26.32Q244.79 27.69 247.50 27.69L247.50 27.69Q249.98 27.69 251.91 26.43Q253.84 25.18 254.93 22.89Q256.01 20.59 256.01 17.56L256.01 17.56ZM282.88 26.66Q281.62 27.69 279.61 28.38Q277.60 29.07 275.55 29.07L275.55 29.07Q272.48 29.07 269.84 27.65Q267.20 26.23 265.60 23.56Q264.00 20.89 264.00 17.29L264.00 17.29Q264.00 13.93 265.47 11.25Q266.94 8.58 269.66 7.08Q272.38 5.58 276.01 5.58L276.01 5.58Q279.87 5.58 282.88 7.26L282.88 7.26L282.88 10.92Q281.85 9.11 279.91 8.04Q277.96 6.96 275.75 6.96L275.75 6.96Q272.94 6.96 270.88 8.28Q268.82 9.60 267.73 11.90Q266.64 14.19 266.64 17.03L266.64 17.03Q266.64 20.23 267.88 22.61Q269.12 24.98 271.23 26.25Q273.34 27.52 275.95 27.52L275.95 27.52Q280.14 27.52 282.88 25.08L282.88 25.08L282.88 26.66Z" transform="translate(0, 0)"></path></g></svg></svg>